<svg xmlns="http://www.w3.org/2000/svg" xmlns:xlink="http://www.w3.org/1999/xlink" width="300" zoomAndPan="magnify" viewBox="0 0 224.87999 225" height="300" preserveAspectRatio="xMidYMid meet" version="1.0"><defs><clipPath id="74699b0355"><path d="M 5.695312 6.648438 L 218.421875 6.648438 L 218.421875 219.207031 L 5.695312 219.207031 Z M 5.695312 6.648438 " clip-rule="nonzero"/></clipPath><clipPath id="84923745f0"><path d="M 41.253906 97.820312 L 62.808594 97.820312 L 62.808594 119.375 L 41.253906 119.375 Z M 41.253906 97.820312 " clip-rule="nonzero"/></clipPath><clipPath id="bde6ef031d"><path d="M 0.253906 0.820312 L 21.808594 0.820312 L 21.808594 22.375 L 0.253906 22.375 Z M 0.253906 0.820312 " clip-rule="nonzero"/></clipPath><clipPath id="31d5a730f8"><rect x="0" width="22" y="0" height="23"/></clipPath><clipPath id="1b27d349d6"><path d="M 70.050781 97.820312 L 91.605469 97.820312 L 91.605469 119.375 L 70.050781 119.375 Z M 70.050781 97.820312 " clip-rule="nonzero"/></clipPath><clipPath id="0ec247932e"><path d="M 0.0507812 0.820312 L 21.605469 0.820312 L 21.605469 22.375 L 0.0507812 22.375 Z M 0.0507812 0.820312 " clip-rule="nonzero"/></clipPath><clipPath id="100b210d9d"><rect x="0" width="22" y="0" height="23"/></clipPath><clipPath id="d50fe75333"><path d="M 41.25 40.6875 L 90.472656 40.6875 L 90.472656 90.171875 L 41.25 90.171875 Z M 41.25 40.6875 " clip-rule="nonzero"/></clipPath><clipPath id="987676a670"><path d="M 0.25 0.6875 L 49.472656 0.6875 L 49.472656 50.171875 L 0.25 50.171875 Z M 0.25 0.6875 " clip-rule="nonzero"/></clipPath><clipPath id="62238bbf0c"><rect x="0" width="50" y="0" height="51"/></clipPath><clipPath id="3a54a96991"><path d="M 41.253906 130.902344 L 182.878906 130.902344 L 182.878906 185.160156 L 41.253906 185.160156 Z M 41.253906 130.902344 " clip-rule="nonzero"/></clipPath><clipPath id="b9d9398123"><path d="M 0.253906 0.902344 L 141.878906 0.902344 L 141.878906 55.160156 L 0.253906 55.160156 Z M 0.253906 0.902344 " clip-rule="nonzero"/></clipPath><clipPath id="7a3554b9e4"><rect x="0" width="142" y="0" height="56"/></clipPath><clipPath id="5c65888b6e"><path d="M 106.015625 40.695312 L 182.875 40.695312 L 182.875 120.558594 L 106.015625 120.558594 Z M 106.015625 40.695312 " clip-rule="nonzero"/></clipPath><clipPath id="8bb95fa72b"><path d="M 182.875 40.695312 L 182.875 120.40625 L 144.445312 91.535156 L 106.015625 120.40625 L 106.015625 40.695312 Z M 182.875 40.695312 " clip-rule="nonzero"/></clipPath><clipPath id="9fb9ef7829"><path d="M 0.015625 0.695312 L 76.875 0.695312 L 76.875 80.476562 L 0.015625 80.476562 Z M 0.015625 0.695312 " clip-rule="nonzero"/></clipPath><clipPath id="c0f2d517eb"><path d="M 76.875 0.695312 L 76.875 80.40625 L 38.445312 51.535156 L 0.015625 80.40625 L 0.015625 0.695312 Z M 76.875 0.695312 " clip-rule="nonzero"/></clipPath><clipPath id="1e34cc6d54"><rect x="0" width="77" y="0" height="81"/></clipPath></defs><g clip-path="url(#74699b0355)"><path stroke-linecap="butt" transform="matrix(0, -0.7496, 0.7496, 0, 5.69527, 219.20806)" fill="none" stroke-linejoin="miter" d="M 0.00137291 0.0000562556 L 283.564089 0.0000562556 L 283.564089 283.78685 L 0.00137291 283.78685 Z M 0.00137291 0.0000562556 " stroke="#ff914d" stroke-width="52" stroke-opacity="1" stroke-miterlimit="4"/></g><g clip-path="url(#84923745f0)"><g transform="matrix(1, 0, 0, 1, 41, 97)"><g clip-path="url(#31d5a730f8)"><g clip-path="url(#bde6ef031d)"><path fill="#ff914d" d="M 0.253906 22.375 L 0.253906 0.820312 L 21.808594 0.820312 L 21.808594 22.375 Z M 0.253906 22.375 " fill-opacity="1" fill-rule="nonzero"/></g></g></g></g><g clip-path="url(#1b27d349d6)"><g transform="matrix(1, 0, 0, 1, 70, 97)"><g clip-path="url(#100b210d9d)"><g clip-path="url(#0ec247932e)"><path fill="#ffde59" d="M 0.0507812 22.375 L 0.0507812 0.820312 L 21.605469 0.820312 L 21.605469 22.375 Z M 0.0507812 22.375 " fill-opacity="1" fill-rule="nonzero"/></g></g></g></g><g clip-path="url(#d50fe75333)"><g transform="matrix(1, 0, 0, 1, 41, 40)"><g clip-path="url(#62238bbf0c)"><g clip-path="url(#987676a670)"><path fill="#ffad31" d="M 0.25 50.171875 L 0.25 0.757812 L 49.472656 0.757812 L 49.472656 50.171875 Z M 0.25 50.171875 " fill-opacity="1" fill-rule="nonzero"/></g></g></g></g><g clip-path="url(#3a54a96991)"><g transform="matrix(1, 0, 0, 1, 41, 130)"><g clip-path="url(#7a3554b9e4)"><g clip-path="url(#b9d9398123)"><path fill="#ffbd59" d="M 0.253906 55.160156 L 0.253906 0.902344 L 141.832031 0.902344 L 141.832031 55.160156 Z M 0.253906 55.160156 " fill-opacity="1" fill-rule="nonzero"/></g></g></g></g><g clip-path="url(#5c65888b6e)"><g clip-path="url(#8bb95fa72b)"><g transform="matrix(1, 0, 0, 1, 106, 40)"><g clip-path="url(#1e34cc6d54)"><g clip-path="url(#9fb9ef7829)"><g clip-path="url(#c0f2d517eb)"><path fill="#ff914d" d="M 0.015625 0.695312 L 76.875 0.695312 L 76.875 80.261719 L 0.015625 80.261719 Z M 0.015625 0.695312 " fill-opacity="1" fill-rule="nonzero"/></g></g></g></g></g></g></svg>