<svg xmlns="http://www.w3.org/2000/svg" xmlns:xlink="http://www.w3.org/1999/xlink" width="500" zoomAndPan="magnify" viewBox="0 0 375 374.999991" height="500" preserveAspectRatio="xMidYMid meet" version="1.0"><defs><clipPath id="e98a67d82c"><path d="M 9.5 10.984375 L 364.976562 10.984375 L 364.976562 363.132812 L 9.5 363.132812 Z M 9.5 10.984375 " clip-rule="nonzero"/></clipPath><clipPath id="9ab9bf141b"><path d="M 37.5 159.207031 L 92.308594 159.207031 L 92.308594 214.015625 L 37.5 214.015625 Z M 37.5 159.207031 " clip-rule="nonzero"/></clipPath><clipPath id="5be2ae928e"><path d="M 0.5 0.207031 L 55.308594 0.207031 L 55.308594 55.015625 L 0.5 55.015625 Z M 0.5 0.207031 " clip-rule="nonzero"/></clipPath><clipPath id="9c71c614ed"><rect x="0" width="56" y="0" height="56"/></clipPath><clipPath id="9b087bba3b"><path d="M 98.589844 159.207031 L 153.398438 159.207031 L 153.398438 214.015625 L 98.589844 214.015625 Z M 98.589844 159.207031 " clip-rule="nonzero"/></clipPath><clipPath id="f174d6015d"><path d="M 0.589844 0.207031 L 55.398438 0.207031 L 55.398438 55.015625 L 0.589844 55.015625 Z M 0.589844 0.207031 " clip-rule="nonzero"/></clipPath><clipPath id="ab2934f8a4"><rect x="0" width="56" y="0" height="56"/></clipPath><clipPath id="fc099c022a"><path d="M 37.496094 37.496094 L 153.398438 37.496094 L 153.398438 154.011719 L 37.496094 154.011719 Z M 37.496094 37.496094 " clip-rule="nonzero"/></clipPath><clipPath id="7674b8a707"><path d="M 0.496094 0.496094 L 116.398438 0.496094 L 116.398438 117.011719 L 0.496094 117.011719 Z M 0.496094 0.496094 " clip-rule="nonzero"/></clipPath><clipPath id="3208ccd205"><rect x="0" width="117" y="0" height="118"/></clipPath><clipPath id="a291a7a058"><path d="M 37.5 219.265625 L 337.5 219.265625 L 337.5 337.5 L 37.5 337.5 Z M 37.5 219.265625 " clip-rule="nonzero"/></clipPath><clipPath id="4b9f35fdb4"><path d="M 0.5 0.265625 L 300.5 0.265625 L 300.5 118.5 L 0.5 118.5 Z M 0.5 0.265625 " clip-rule="nonzero"/></clipPath><clipPath id="654e133ede"><rect x="0" width="301" y="0" height="119"/></clipPath><clipPath id="1afedd0c3f"><path d="M 159.316406 37.5 L 337.902344 37.5 L 337.902344 214.015625 L 159.316406 214.015625 Z M 159.316406 37.5 " clip-rule="nonzero"/></clipPath><clipPath id="ebec8b427c"><path d="M 337.5 37.5 L 337.5 214.015625 L 248.410156 187.675781 L 159.316406 214.015625 L 159.316406 37.5 Z M 337.5 37.5 " clip-rule="nonzero"/></clipPath><clipPath id="c545df4010"><path d="M 0.316406 0.5 L 178.679688 0.5 L 178.679688 177.015625 L 0.316406 177.015625 Z M 0.316406 0.5 " clip-rule="nonzero"/></clipPath><clipPath id="568188398e"><path d="M 178.5 0.5 L 178.5 177.015625 L 89.410156 150.675781 L 0.316406 177.015625 L 0.316406 0.5 Z M 178.5 0.5 " clip-rule="nonzero"/></clipPath><clipPath id="1a6480557f"><rect x="0" width="179" y="0" height="178"/></clipPath></defs><g clip-path="url(#e98a67d82c)"><path stroke-linecap="butt" transform="matrix(0, -0.75, 0.75, 0, 9.501511, 363.134595)" fill="none" stroke-linejoin="miter" d="M 0.00237607 -0.0020153 L 469.533687 -0.0020153 L 469.533687 473.966796 L 0.00237607 473.966796 Z M 0.00237607 -0.0020153 " stroke="#ff914d" stroke-width="52" stroke-opacity="1" stroke-miterlimit="4"/></g><g clip-path="url(#9ab9bf141b)"><g transform="matrix(1, 0, 0, 1, 37, 159)"><g clip-path="url(#9c71c614ed)"><g clip-path="url(#5be2ae928e)"><path fill="#ff914d" d="M 0.5 55.015625 L 0.5 0.207031 L 55.308594 0.207031 L 55.308594 55.015625 Z M 0.5 55.015625 " fill-opacity="1" fill-rule="nonzero"/></g></g></g></g><g clip-path="url(#9b087bba3b)"><g transform="matrix(1, 0, 0, 1, 98, 159)"><g clip-path="url(#ab2934f8a4)"><g clip-path="url(#f174d6015d)"><path fill="#ffad31" d="M 0.589844 55.015625 L 0.589844 0.207031 L 55.398438 0.207031 L 55.398438 55.015625 Z M 0.589844 55.015625 " fill-opacity="1" fill-rule="nonzero"/></g></g></g></g><g clip-path="url(#fc099c022a)"><g transform="matrix(1, 0, 0, 1, 37, 37)"><g clip-path="url(#3208ccd205)"><g clip-path="url(#7674b8a707)"><path fill="#ffde59" d="M 0.496094 117.011719 L 0.496094 0.660156 L 116.398438 0.660156 L 116.398438 117.011719 Z M 0.496094 117.011719 " fill-opacity="1" fill-rule="nonzero"/></g></g></g></g><g clip-path="url(#a291a7a058)"><g transform="matrix(1, 0, 0, 1, 37, 219)"><g clip-path="url(#654e133ede)"><g clip-path="url(#4b9f35fdb4)"><path fill="#ffbd59" d="M 0.5 118.5 L 0.5 0.265625 L 300.699219 0.265625 L 300.699219 118.5 Z M 0.5 118.5 " fill-opacity="1" fill-rule="nonzero"/></g></g></g></g><g clip-path="url(#1afedd0c3f)"><g clip-path="url(#ebec8b427c)"><g transform="matrix(1, 0, 0, 1, 159, 37)"><g clip-path="url(#1a6480557f)"><g clip-path="url(#c545df4010)"><g clip-path="url(#568188398e)"><path fill="#ff914d" d="M 0.316406 0.5 L 178.210938 0.5 L 178.210938 177.015625 L 0.316406 177.015625 Z M 0.316406 0.5 " fill-opacity="1" fill-rule="nonzero"/></g></g></g></g></g></g></svg>