<svg xmlns="http://www.w3.org/2000/svg" xmlns:xlink="http://www.w3.org/1999/xlink" width="300" zoomAndPan="magnify" viewBox="0 0 224.87999 225" height="300" preserveAspectRatio="xMidYMid meet" version="1.0"><defs><clipPath id="c77da14a9c"><path d="M 5.695312 6.648438 L 218.421875 6.648438 L 218.421875 219.207031 L 5.695312 219.207031 Z M 5.695312 6.648438 " clip-rule="nonzero"/></clipPath><clipPath id="23beb3cc63"><path d="M 41.148438 41.0625 L 82.5625 41.0625 L 82.5625 112.921875 L 41.148438 112.921875 Z M 41.148438 41.0625 " clip-rule="nonzero"/></clipPath><clipPath id="16c2531e20"><path d="M 0.148438 0.0625 L 41.5625 0.0625 L 41.5625 71.921875 L 0.148438 71.921875 Z M 0.148438 0.0625 " clip-rule="nonzero"/></clipPath><clipPath id="29353f2a72"><rect x="0" width="42" y="0" height="72"/></clipPath><clipPath id="d8aae63389"><path d="M 116.046875 41.070312 L 185.339844 41.070312 L 185.339844 113 L 116.046875 113 Z M 116.046875 41.070312 " clip-rule="nonzero"/></clipPath><clipPath id="cfc5a793f8"><path d="M 185.339844 41.070312 L 185.339844 112.929688 L 150.691406 86.902344 L 116.046875 112.929688 L 116.046875 41.070312 Z M 185.339844 41.070312 " clip-rule="nonzero"/></clipPath><clipPath id="220cefa82e"><path d="M 0.046875 0.0703125 L 69.339844 0.0703125 L 69.339844 72 L 0.046875 72 Z M 0.046875 0.0703125 " clip-rule="nonzero"/></clipPath><clipPath id="3c90225054"><path d="M 69.339844 0.0703125 L 69.339844 71.929688 L 34.691406 45.902344 L 0.046875 71.929688 L 0.046875 0.0703125 Z M 69.339844 0.0703125 " clip-rule="nonzero"/></clipPath><clipPath id="d9c4b89bd7"><rect x="0" width="70" y="0" height="72"/></clipPath><clipPath id="c86cb4a01a"><path d="M 41.144531 140.367188 L 82.5625 140.367188 L 82.5625 182 L 41.144531 182 Z M 41.144531 140.367188 " clip-rule="nonzero"/></clipPath><clipPath id="a9614c8938"><path d="M 0.144531 0.367188 L 41.5625 0.367188 L 41.5625 42 L 0.144531 42 Z M 0.144531 0.367188 " clip-rule="nonzero"/></clipPath><clipPath id="61a8371438"><rect x="0" width="42" y="0" height="42"/></clipPath><clipPath id="ad4c9c5550"><path d="M 116.042969 140.371094 L 185.335938 140.371094 L 185.335938 182.003906 L 116.042969 182.003906 Z M 116.042969 140.371094 " clip-rule="nonzero"/></clipPath><clipPath id="414381d676"><path d="M 0.0429688 0.371094 L 69.335938 0.371094 L 69.335938 42.003906 L 0.0429688 42.003906 Z M 0.0429688 0.371094 " clip-rule="nonzero"/></clipPath><clipPath id="f52a3b91bf"><rect x="0" width="70" y="0" height="43"/></clipPath></defs><g clip-path="url(#c77da14a9c)"><path stroke-linecap="butt" transform="matrix(0, -0.7496, 0.7496, 0, 5.69527, 219.20806)" fill="none" stroke-linejoin="miter" d="M 0.00137291 0.0000562556 L 283.564089 0.0000562556 L 283.564089 283.78685 L 0.00137291 283.78685 Z M 0.00137291 0.0000562556 " stroke="#f7672c" stroke-width="52" stroke-opacity="1" stroke-miterlimit="4"/></g><g clip-path="url(#23beb3cc63)"><g transform="matrix(1, 0, 0, 1, 41, 41)"><g clip-path="url(#29353f2a72)"><g clip-path="url(#16c2531e20)"><path fill="#ffad31" d="M 0.148438 71.921875 L 0.148438 0.09375 L 41.5625 0.09375 L 41.5625 71.921875 Z M 0.148438 71.921875 " fill-opacity="1" fill-rule="nonzero"/></g></g></g></g><g clip-path="url(#d8aae63389)"><g clip-path="url(#cfc5a793f8)"><g transform="matrix(1, 0, 0, 1, 116, 41)"><g clip-path="url(#d9c4b89bd7)"><g clip-path="url(#220cefa82e)"><g clip-path="url(#3c90225054)"><path fill="#f7672c" d="M 0.046875 0.0703125 L 69.339844 0.0703125 L 69.339844 71.800781 L 0.046875 71.800781 Z M 0.046875 0.0703125 " fill-opacity="1" fill-rule="nonzero"/></g></g></g></g></g></g><g clip-path="url(#c86cb4a01a)"><g transform="matrix(1, 0, 0, 1, 41, 140)"><g clip-path="url(#61a8371438)"><g clip-path="url(#a9614c8938)"><path fill="#ff914d" d="M 0.144531 42 L 0.144531 0.425781 L 41.5625 0.425781 L 41.5625 42 Z M 0.144531 42 " fill-opacity="1" fill-rule="nonzero"/></g></g></g></g><g clip-path="url(#ad4c9c5550)"><g transform="matrix(1, 0, 0, 1, 116, 140)"><g clip-path="url(#f52a3b91bf)"><g clip-path="url(#414381d676)"><path fill="#ffad31" d="M 0.0429688 42.003906 L 0.0429688 0.371094 L 69.324219 0.371094 L 69.324219 42.003906 Z M 0.0429688 42.003906 " fill-opacity="1" fill-rule="nonzero"/></g></g></g></g></svg>